PathFileType	4	(X/Y/Z)	Patient4_TMGait_0pt6_01_left_43.trc.trc
DataRate	CameraRate	NumFrames	NumMarkers	Units	OrigDataRate	OrigDataStartFrame	OrigNumFrames
81.395348837209	81.395348837209	5	33	mm	81.395348837209	124	       141
Frame#	Time	Sacral			L.Shoulder			Chest			R.Shoulder			Neck			R.ASIS			L.ASIS			R.Thigh.Superior			R.Thigh.Lateral			R.Thigh.Inferior			R.Patella			L.Thigh.Superior			L.Thigh.Lateral			L.Thigh.Inferior			L.Patella			L.Shank.Superior			L.Shank.Lateral			L.Shank.Inferior			R.Shank.Superior			R.Shank.Lateral			R.Shank.Inferior			R.Heel			R.Midfoot.Superior			R.Midfoot.Lateral			R.Toe			L.Heel			L.Midfoot.Lateral			L.Midfoot.Superior			L.Toe			L.Elbow			L.Wrist			R.Elbow			R.Wrist			
		X1	Y1	Z1	X2	Y2	Z2	X3	Y3	Z3	X4	Y4	Z4	X5	Y5	Z5	X6	Y6	Z6	X7	Y7	Z7	X8	Y8	Z8	X9	Y9	Z9	X10	Y10	Z10	X11	Y11	Z11	X12	Y12	Z12	X13	Y13	Z13	X14	Y14	Z14	X15	Y15	Z15	X16	Y16	Z16	X17	Y17	Z17	X18	Y18	Z18	X19	Y19	Z19	X20	Y20	Z20	X21	Y21	Z21	X22	Y22	Z22	X23	Y23	Z23	X24	Y24	Z24	X25	Y25	Z25	X26	Y26	Z26	X27	Y27	Z27	X28	Y28	Z28	X29	Y29	Z29	X30	Y30	Z30	X31	Y31	Z31	X32	Y32	Z32	X33	Y33	Z33	

124	53.781142857143	778.966790259970	998.609230752560	500.476236000091	918.818736740674	1427.089558323895	298.218539090801	1046.351679238218	1357.377357002749	440.617639526294	989.829467195827	1428.722422077388	624.067042568193	921.061881006454	1484.110372485765	451.238880926291	1013.653147028286	932.156284580267	591.787052633993	973.239765339325	951.119939810896	320.287721366749	1010.664604898191	717.247369049265	561.873340269408	909.406224596316	622.195464203720	625.652856300977	965.319455220940	558.655021476351	541.128423834324	944.441700754644	472.161861690684	543.381986622603	1057.715303855897	768.277384538034	353.497864606288	1005.606089404754	637.682878894310	281.993109731907	1111.668187745528	581.467405465214	341.271260735629	1134.080778016914	511.759799048944	341.850078904459	1113.441641193033	437.202567483446	332.139637960907	1037.925512289329	313.792721666637	279.174733883853	1113.415300242579	208.193591993171	337.706312363179	903.465637648916	388.152091113573	550.470007345298	818.834688593640	295.907313635580	614.107998894800	839.177528573554	197.961567536965	546.549109521105	681.996017345455	43.329900412713	520.008921083332	855.468613594723	95.835719628936	550.451765317201	766.938646041721	36.732441383654	592.281459740957	975.379632425948	40.073618491374	576.120981651712	1011.747867815758	39.829621474463	371.260795518677	1088.730385225431	38.621058817322	293.857859677762	1165.996575671114	107.041501916596	319.596368735624	1297.500871311657	63.237043976171	298.642760110482	858.707278778787	1073.659725515007	199.017911812135	944.967662578928	826.400186595903	192.888788128467	1134.439907031271	1117.739418603750	724.926044262786	1330.667307059091	1228.742750472050	619.382320991512	
125	53.793428571429	779.659259037124	997.423373332420	498.332872659314	916.685956557446	1426.019667428972	296.433022167221	1044.926227288057	1357.287344131914	438.640694106808	988.211341582037	1428.197044284108	622.195600049120	919.346366513807	1483.347541938511	449.516108955029	1014.431999955551	931.227709968226	590.038163019842	974.479125405891	950.461896594540	318.591846308058	1010.428510252365	715.960596112741	560.452860626322	908.243730307033	621.446894729880	624.057990710626	964.035179507155	557.295085256483	539.889196151728	942.345630382291	470.461079450288	542.005317012227	1059.474779885527	766.885000512552	352.804920439595	1006.278638305902	636.539169736453	281.829356897016	1111.766116351416	579.614420854999	341.539580227816	1132.845292981528	508.777927751551	342.504586674573	1110.965624309624	434.000900687371	332.668335623494	1032.994377672785	312.184749379477	279.099372241627	1105.226439975722	204.874332318437	338.698653175131	900.179296700798	387.031427477902	549.331061859888	814.505969017031	296.090106218828	613.553215131572	833.348027367662	197.686411828455	546.169645857292	674.635444704049	44.056826231101	520.245687753057	848.358516614167	95.886698268830	550.502053995084	759.634596072680	36.927066523167	592.299764161777	968.064211660526	39.791367208093	576.190630213937	998.921047555764	38.959986515284	371.307022504900	1076.198235819591	36.869372639396	294.088333945296	1154.861342558866	103.312553140996	321.059777893839	1285.853389413445	56.896594577750	300.125680314025	857.038377451430	1072.374523736672	197.972875179503	942.046497028541	824.648287086522	192.618567458354	1139.292186552502	1120.303828904475	721.213910487075	1330.946884063688	1237.932917635352	614.992841546640	
126	53.805714285714	780.300852447135	996.512130634515	496.042615096543	914.939458458259	1425.090632175472	294.554353595349	1043.786813853096	1357.280409995539	436.632456224317	986.880803086133	1427.862457042041	620.254811566397	917.936705380162	1482.782486461846	447.687625216256	1015.119964354576	930.417081377459	588.118107050969	975.636994837779	950.064530688182	316.749352110258	1010.299797566028	714.880718621466	558.890341809457	907.312271910962	620.836342161905	622.320068455516	963.127864141328	556.078482362201	538.560588840427	940.729673760917	468.754446870341	540.633000438487	1060.872347409807	765.675120531304	352.027297869739	1006.966819199445	635.782188507837	281.284355725340	1111.649705809400	578.107830537391	341.819735191103	1131.596771813579	506.354219680836	342.997174924870	1108.708001009405	431.380290752168	332.986727207164	1028.839846151339	310.918922858445	278.780017524871	1098.062705390222	202.269367558143	339.492283350909	897.215514817299	385.997121072729	548.166143366698	810.378854868083	296.496080423402	612.959009980269	827.681908971026	197.594447916506	545.838890206148	667.313747241211	45.139664239931	520.541466332681	841.381256615191	95.993486405720	550.614372832506	752.385423300208	37.253419316819	592.336774395443	960.795701827496	39.454001361083	576.260249690989	987.737600947652	38.385871608040	371.311614713372	1065.240598086480	35.727530746934	294.233067436106	1144.938989479266	100.583016706043	322.286500678714	1275.540764670855	52.195466413724	301.283794241781	855.587179825897	1071.202601135747	196.926052334865	938.785165464135	822.852251843367	192.401559739906	1143.727631166271	1122.909399469801	717.751111611073	1330.991075235693	1246.466361505489	610.953906257430	
127	53.818000000000	780.862508591964	995.912870166386	493.626182247978	913.595606162924	1424.384068051964	292.612399486842	1042.937081260033	1357.374934120984	434.614816454678	985.861186380331	1427.738048060420	618.264287868325	916.837340846506	1482.453838073423	445.784200609830	1015.682775670365	929.781571921698	586.014299733688	976.651367540498	949.960196073124	314.723524716338	1010.252454956186	714.064866458654	557.187458854366	906.633139623579	620.398064572513	620.467491062532	962.635979146499	555.050667638479	537.175263881690	939.675160094917	467.066417007398	539.346558193188	1061.866835166716	764.745421828695	351.098454532851	1007.616759652229	635.412811120775	280.354116341622	1111.306467724992	576.979206847019	341.986814012739	1130.312252866801	504.509236717152	343.258846519820	1106.635136501666	429.347984327617	333.081195635116	1025.390020878396	310.005994360439	278.230786281175	1091.857754327034	200.364032960571	340.073529761932	894.634080747216	385.081550723892	547.036891887837	806.486297725753	297.165081641471	612.346425406429	822.221928073480	197.726870882145	545.590667746933	660.054228187497	46.661989463892	520.897801120069	834.569265608425	96.167079214968	550.808135577386	745.199607856407	37.754061678072	592.402591431953	953.572056320529	39.077025593481	576.326744893081	978.129244335085	38.084304585587	371.296126010469	1055.783076069836	35.122477110931	294.311078894537	1136.189565196269	98.784815407273	323.244364593647	1266.511513203610	49.019000165918	302.087084384545	854.359209446720	1070.251301332477	195.843876324804	935.230467839988	821.141985187455	192.245138972303	1147.723549217542	1125.510256645499	714.550533754387	1330.874678587562	1254.282812928993	607.266450388651	
128	53.830285714286	781.325909502514	995.642185090610	491.094133017505	912.649437571498	1423.969551317003	290.634561724388	1042.362844230677	1357.586323795187	432.607328666860	985.146962415315	1427.829706693520	616.242702742132	916.034470262989	1482.385376260924	443.835505242620	1016.098958125005	929.368975940153	583.726326429809	977.488704256103	950.160072073973	312.486772211939	1010.273835877495	713.556185375687	555.361696417043	906.233608965646	620.154537103568	618.535790642541	962.604995481719	554.247162760397	535.774352600383	939.267317778235	465.420750235809	538.234425078861	1062.467560060328	764.156673899191	349.948718215388	1008.142863776634	635.385633539520	279.073020209141	1110.707860376565	576.191385461336	341.917834351930	1128.920918008919	503.178600906587	343.252279625323	1104.641608577597	427.842544337875	332.963989426169	1022.450670174622	309.411221019340	277.496415314940	1086.409090092199	199.070544441954	340.456156939075	892.506328407924	384.311909294904	546.008820825710	802.876189381980	298.134140320964	611.739459034791	817.023471940466	198.122946674204	545.457443330902	652.893329940345	48.713028845751	521.312105429521	827.958311630722	96.418617834834	551.099242836408	738.089247800028	38.480646830239	592.504185813211	946.386196329765	38.679583273231	576.386626326570	969.846732061620	38.003335856018	371.273670460464	1047.581687023464	34.936976723259	294.340204582195	1128.426833154697	97.765458437758	323.936116694428	1258.562469205464	47.118922577936	302.555433808508	853.357663304049	1069.614307291983	194.685855780443	931.448340505965	819.642400868970	192.143705401534	1151.249456679746	1128.060662416612	711.615690246846	1330.670860006178	1261.319815445457	603.931971618055	
